<svg width="47" height="47" viewBox="0 0 47 47" fill="none" xmlns="http://www.w3.org/2000/svg">
<path d="M46.3253 -6.10352e-05V-6.94885L53.274 -6.10352e-05H46.3253ZM15.8051 -6.10352e-05H8.85628L15.8051 -6.94885V-6.10352e-05ZM46.3253 30.5201H53.274L46.3253 37.4689V30.5201ZM30.5201 30.5201H23.5714L30.5201 23.5713V30.5201ZM30.5201 46.3252H37.469L30.5201 53.274V46.3252ZM-3.05176e-05 46.3252V53.274L-6.94882 46.3252H-3.05176e-05ZM-3.05176e-05 15.805H-6.94882L-3.05176e-05 8.85624V15.805ZM15.8051 15.805H22.7539L15.8051 22.7538V15.805ZM46.3253 6.94873H15.8051V-6.94885H46.3253V6.94873ZM39.3765 30.5201V-6.10352e-05H53.274V30.5201H39.3765ZM30.5201 23.5713H46.3253V37.4689H30.5201V23.5713ZM23.5714 46.3252V30.5201H37.469V46.3252H23.5714ZM-3.05176e-05 39.3764H30.5201V53.274H-3.05176e-05V39.3764ZM6.94876 15.805V46.3252H-6.94882V15.805H6.94876ZM15.8051 22.7538H-3.05176e-05V8.85624H15.8051V22.7538ZM22.7539 -6.10352e-05V15.805H8.85628V-6.10352e-05H22.7539Z" fill="url(#paint0_linear_413_9)"/>
<defs>
<linearGradient id="paint0_linear_413_9" x1="23.1626" y1="-6.06509e-05" x2="23.1626" y2="46.3252" gradientUnits="userSpaceOnUse">
<stop stop-color="#0085FF"/>
<stop offset="1" stop-color="#CC60FF"/>
</linearGradient>
</defs>
</svg>
