<svg width="35" height="26" viewBox="0 0 35 26" fill="none" xmlns="http://www.w3.org/2000/svg">
<path d="M0 1.64062C0 0.734541 0.734541 0 1.64062 0H33.3594C34.2654 0 35 0.734541 35 1.64062C35 2.54671 34.2654 3.28125 33.3594 3.28125H1.64062C0.734541 3.28125 0 2.54671 0 1.64062Z" fill="#212121"/>
<path d="M0 12.5781C0 11.672 0.734541 10.9375 1.64062 10.9375H33.3594C34.2654 10.9375 35 11.672 35 12.5781C35 13.4842 34.2654 14.2188 33.3594 14.2188H1.64062C0.734541 14.2188 0 13.4842 0 12.5781Z" fill="#212121"/>
<path d="M1.64062 21.875C0.734541 21.875 0 22.6096 0 23.5156C0 24.4217 0.734541 25.1562 1.64062 25.1562H33.3594C34.2654 25.1562 35 24.4217 35 23.5156C35 22.6096 34.2654 21.875 33.3594 21.875H1.64062Z" fill="#212121"/>
</svg>
